<svg width="31" height="30" viewBox="0 0 31 30" fill="none" xmlns="http://www.w3.org/2000/svg">
<path d="M30.3198 19.7041V30H20.0513L10.5044 14.9863L30.3198 19.7041Z" fill="#FF3300"/>
<path d="M13.4185 29.834C9.72756 29.3345 6.48065 27.4471 4.17725 24.7275L10.5044 14.9863L13.4185 29.834Z" fill="#FF3300"/>
<path d="M10.5044 14.9863L1.12451 18.3721C0.819239 17.2342 0.680176 16.0404 0.680176 14.8193C0.68021 13.7096 0.818606 12.6275 1.04053 11.5732L10.5044 14.9863Z" fill="#FF3300"/>
<path d="M30.3198 10.2686L10.5044 14.9863L20.0513 0H30.3198V10.2686Z" fill="#FF3300"/>
<path d="M10.5044 14.9863L4.17725 5.24512C6.48066 2.52546 9.72747 0.665956 13.4185 0.138672L10.5044 14.9863Z" fill="#FF3300"/>
</svg>
