<svg width="217" height="30" viewBox="0 0 217 30" fill="none" xmlns="http://www.w3.org/2000/svg">
<path fill-rule="evenodd" clip-rule="evenodd" d="M133.947 20.7119C133.947 27.0609 130.509 29.9999 124.354 30C121.111 30 117.977 29.1961 115.953 27.6436L117.922 24.0938C119.391 25.2582 121.775 26.0352 123.966 26.0352C127.459 26.0352 128.984 24.4547 128.984 21.3496V20.6279C127.681 22.0696 125.796 22.7636 123.578 22.7637C118.837 22.7637 115.038 19.4916 115.038 14.501C115.038 9.51016 118.865 6.23828 123.578 6.23828C125.962 6.23838 127.931 7.04196 129.234 8.67773V6.84766L133.947 5.68359V20.7119ZM124.576 10.3135C121.97 10.3135 120.057 12.0056 120.057 14.501C120.057 17.024 121.97 18.6875 124.576 18.6875C127.182 18.6874 129.067 16.9961 129.067 14.501C129.067 11.978 127.182 10.3136 124.576 10.3135Z" fill="#012A38"/>
<path fill-rule="evenodd" clip-rule="evenodd" d="M98.8184 23.5947H94.0771V21.627C92.8295 23.124 91.0267 23.8447 88.7256 23.8447C83.9013 23.8445 80.1865 20.4062 80.1865 15.0273C80.1866 9.6486 83.9014 6.21015 88.7256 6.20996C90.8328 6.20996 92.6078 6.87598 93.8555 8.29004V6.90332L98.8184 5.68359V23.5947ZM89.6133 10.2861C87.1456 10.2861 85.2325 12.0607 85.2324 15.0273C85.2324 17.9941 87.1456 19.7686 89.6133 19.7686C92.0532 19.7685 93.9668 17.9941 93.9668 15.0273C93.9667 12.0607 92.0532 10.2861 89.6133 10.2861Z" fill="#012A38"/>
<path fill-rule="evenodd" clip-rule="evenodd" d="M146.098 6.21094C150.839 6.21108 154.72 9.37207 154.914 14.6123L142.576 17.8564C143.38 19.1871 144.877 19.8798 146.846 19.8799C148.648 19.8799 149.951 19.3535 151.144 18.2168L153.777 21.0723C152.197 22.8745 149.812 23.8447 146.707 23.8447C140.802 23.8446 136.947 20.1298 136.947 15.0283C136.947 9.89887 140.83 6.21094 146.098 6.21094ZM146.098 9.98145C143.63 9.98145 141.827 11.5622 141.827 14.917L150.173 12.9209C149.702 11.1742 148.177 9.98157 146.098 9.98145Z" fill="#012A38"/>
<path fill-rule="evenodd" clip-rule="evenodd" d="M162.878 8.29004C164.153 6.90393 165.9 6.21094 168.035 6.21094C172.832 6.23889 176.547 9.67724 176.547 15.0283C176.547 20.4069 172.832 23.8445 168.035 23.8447C165.734 23.8447 163.903 23.1242 162.655 21.627V23.5957H157.914V1.21973L162.878 0V8.29004ZM167.175 10.2861C164.707 10.2863 162.822 12.0617 162.822 15.0283C162.822 17.9947 164.707 19.7694 167.175 19.7695C169.67 19.7695 171.528 17.9948 171.528 15.0283C171.528 12.0616 169.642 10.2861 167.175 10.2861Z" fill="#012A38"/>
<path fill-rule="evenodd" clip-rule="evenodd" d="M187.597 6.21094C192.338 6.21097 196.22 9.37198 196.414 14.6123L184.075 17.8564C184.879 19.1872 186.377 19.8799 188.346 19.8799C190.148 19.8798 191.451 19.3533 192.643 18.2168L195.277 21.0723C193.697 22.8744 191.312 23.8446 188.207 23.8447C182.301 23.8447 178.447 20.1299 178.447 15.0283C178.447 9.89887 182.329 6.21094 187.597 6.21094ZM187.597 9.98145C185.129 9.98145 183.327 11.5622 183.327 14.917L191.673 12.9209C191.202 11.1741 189.676 9.98148 187.597 9.98145Z" fill="#012A38"/>
<path fill-rule="evenodd" clip-rule="evenodd" d="M207.464 6.21094C212.205 6.21108 216.086 9.37207 216.28 14.6123L203.942 17.8564C204.746 19.1871 206.244 19.8798 208.212 19.8799C210.014 19.8799 211.318 19.3535 212.51 18.2168L215.144 21.0723C213.563 22.8745 211.179 23.8447 208.073 23.8447C202.168 23.8446 198.314 20.1298 198.313 15.0283C198.313 9.89887 202.196 6.21094 207.464 6.21094ZM207.464 9.98145C204.996 9.98145 203.193 11.5622 203.193 14.917L211.539 12.9209C211.068 11.1742 209.543 9.98157 207.464 9.98145Z" fill="#012A38"/>
<path d="M49.5381 6.21094C53.1147 6.21096 55.9427 7.62496 57.1904 10.3975L52.6152 11.6172C51.7559 10.7027 50.6749 10.2872 49.5107 10.2871C46.9876 10.2871 45.0186 12.0338 45.0186 15.0283C45.0187 18.0226 46.9877 19.7695 49.5107 19.7695C50.7027 19.7694 51.7559 19.3532 52.6152 18.4385L57.1904 19.5195C55.9427 22.2367 53.1148 23.8174 49.5381 23.8174C43.9928 23.8451 40.0001 20.1853 40 15.0283C40 9.87115 43.965 6.21094 49.5381 6.21094Z" fill="#012A38"/>
<path d="M64.7539 8.2627C66.0848 6.93187 67.9981 6.23828 70.1885 6.23828C74.2363 6.23845 77.286 8.59538 77.2861 13.8076V23.5957H72.3232V14.5566C72.3232 11.7841 71.0477 10.5089 68.8574 10.5088C66.4729 10.5088 64.7539 11.9782 64.7539 15.1113V23.5674H59.791V1.19238L64.7539 0V8.2627Z" fill="#012A38"/>
<path d="M107.76 8.76172C108.952 7.0982 111.004 6.23832 113.638 6.23828V10.8135C113.222 10.7858 112.917 10.7578 112.529 10.7578C109.784 10.7578 107.981 12.2556 107.981 15.5273V23.5957H103.019V6.84863L107.76 5.71191V8.76172Z" fill="#012A38"/>
<path d="M29.8198 19.7041V30H19.5513L10.0044 14.9863L29.8198 19.7041Z" fill="#FF3300"/>
<path d="M12.9185 29.834C9.22756 29.3345 5.98065 27.4471 3.67725 24.7275L10.0044 14.9863L12.9185 29.834Z" fill="#FF3300"/>
<path d="M10.0044 14.9863L0.624512 18.3721C0.319239 17.2342 0.180176 16.0404 0.180176 14.8193C0.18021 13.7096 0.318606 12.6275 0.540527 11.5732L10.0044 14.9863Z" fill="#FF3300"/>
<path d="M29.8198 10.2686L10.0044 14.9863L19.5513 0H29.8198V10.2686Z" fill="#FF3300"/>
<path d="M10.0044 14.9863L3.67725 5.24512C5.98066 2.52546 9.22747 0.665956 12.9185 0.138672L10.0044 14.9863Z" fill="#FF3300"/>
</svg>
