<svg width="177" height="64" viewBox="0 0 177 64" fill="none" xmlns="http://www.w3.org/2000/svg">
<path fill-rule="evenodd" clip-rule="evenodd" d="M87.1133 40C89.5482 40.0001 91.4004 40.8018 92.6699 42.4043V41.2109L97.29 40.3965V54.2363C97.29 57.3164 96.4892 59.6061 94.8867 61.1045C93.2841 62.6029 90.9425 63.3516 87.8623 63.3516C86.239 63.3516 84.699 63.1542 83.2422 62.7588C81.7853 62.3633 80.5775 61.7912 79.6201 61.042L81.5557 57.5449C82.2633 58.1277 83.159 58.5859 84.2412 58.9189C85.3232 59.2726 86.4053 59.4492 87.4873 59.4492C89.1731 59.4492 90.4122 59.064 91.2031 58.2939C92.0145 57.5447 92.4199 56.4002 92.4199 54.8604V54.1426C91.1504 55.5367 89.3815 56.2343 87.1133 56.2344C85.5732 56.2344 84.1575 55.9013 82.8672 55.2354C81.5976 54.5485 80.5881 53.5903 79.8389 52.3623C79.0898 51.1345 78.7149 49.7195 78.7148 48.1172C78.7148 46.5146 79.0896 45.099 79.8389 43.8711C80.5881 42.6432 81.5976 41.6963 82.8672 41.0303C84.1576 40.3435 85.5731 40 87.1133 40ZM88.0811 43.9961C86.7907 43.9961 85.729 44.3813 84.8965 45.1514C84.064 45.9006 83.6475 46.8893 83.6475 48.1172C83.6475 49.345 84.064 50.3442 84.8965 51.1143C85.729 51.8634 86.7907 52.2383 88.0811 52.2383C89.3713 52.2382 90.4227 51.8635 91.2344 51.1143C92.0668 50.3443 92.4824 49.345 92.4824 48.1172C92.4824 46.8894 92.0666 45.9006 91.2344 45.1514C90.4227 44.3813 89.3713 43.9961 88.0811 43.9961Z" fill="#FF3300"/>
<path fill-rule="evenodd" clip-rule="evenodd" d="M4.87012 41.9902C6.09806 40.6374 7.78404 39.9609 9.92773 39.9609C11.4887 39.961 12.9043 40.3253 14.1738 41.0537C15.4641 41.7613 16.4738 42.7709 17.2021 44.082C17.9305 45.3723 18.2939 46.8812 18.2939 48.6084C18.2939 50.3358 17.9306 51.8558 17.2021 53.167C16.4737 54.4573 15.4641 55.4669 14.1738 56.1953C12.9043 56.9029 11.4887 57.2568 9.92773 57.2568C7.61753 57.2568 5.8585 56.5282 4.65137 55.0713V57.0068H0V34.9131L4.87012 34.0547V41.9902ZM9.08496 43.957C7.8362 43.957 6.80584 44.384 5.99414 45.2373C5.20336 46.0697 4.80769 47.1933 4.80762 48.6084C4.80762 50.0237 5.20326 51.1584 5.99414 52.0117C6.80582 52.8442 7.83624 53.2607 9.08496 53.2607C10.3336 53.2607 11.3537 52.8442 12.1445 52.0117C12.9561 51.1584 13.3613 50.0236 13.3613 48.6084C13.3613 47.1935 12.956 46.0697 12.1445 45.2373C11.3537 44.384 10.3336 43.9571 9.08496 43.957Z" fill="#FF3300"/>
<path d="M25.7646 57.0547H20.8945V41.9082L25.7646 41.0498V57.0547Z" fill="#FF3300"/>
<path d="M33.5352 50.9668C33.5352 51.6743 33.7126 52.2257 34.0664 52.6211C34.441 52.9957 34.9611 53.1835 35.627 53.1836C35.8767 53.1836 36.1272 53.1523 36.377 53.0898C36.6473 53.0274 36.8553 52.9543 37.001 52.8711L37.2197 56.6484C36.408 56.919 35.5646 57.0547 34.6904 57.0547C32.7966 57.0546 31.3192 56.5546 30.2578 55.5557C29.1964 54.5358 28.665 53.0994 28.665 51.2471V34.9131L33.5352 34.0547V50.9668Z" fill="#FF3300"/>
<path d="M68.8535 40C70.9347 40 72.6104 40.6243 73.8799 41.873C75.1701 43.1217 75.8154 44.9741 75.8154 47.4297V57.0117H70.9453V48.1797C70.9453 46.8479 70.6538 45.8591 70.0713 45.2139C69.4885 44.5479 68.6451 44.2148 67.542 44.2148C66.3141 44.2149 65.3358 44.6001 64.6074 45.3701C63.8792 46.1194 63.5147 47.2429 63.5146 48.7412V57.0117H58.6445V41.2109L63.2959 40.3906V42.2168C63.9411 41.5092 64.7428 40.9674 65.7002 40.5928C66.6575 40.1974 67.7089 40 68.8535 40Z" fill="#FF3300"/>
<path d="M43.9893 50.9121C43.9893 51.6197 44.1667 52.1719 44.5205 52.5674C44.8951 52.9418 45.4154 53.1288 46.0811 53.1289C46.3308 53.1289 46.5813 53.0976 46.8311 53.0352C47.1014 52.9727 47.3095 52.8996 47.4551 52.8164L47.6738 56.5938C46.8621 56.8643 46.0187 57 45.1445 57C43.2509 56.9999 41.7733 56.5007 40.7119 55.502C39.6505 54.4821 39.1191 53.0457 39.1191 51.1934V34.8584L43.9893 34V50.9121Z" fill="#FF3300"/>
<path d="M55.4434 56.8809H50.5732V41.7344L55.4434 40.876V56.8809Z" fill="#FF3300"/>
<path d="M25.7656 39.1953L20.8945 40.0547V37.0332L25.7656 36.1738V39.1953Z" fill="#FF3300"/>
<path d="M55.4443 39.0225L50.5732 39.8809V36.8594L55.4443 36V39.0225Z" fill="#FF3300"/>
<path fill-rule="evenodd" clip-rule="evenodd" d="M93.9473 20.7119C93.9471 27.0609 90.5094 29.9999 84.3545 30C81.1107 30 77.9772 29.1961 75.9531 27.6436L77.9219 24.0938C79.3914 25.2582 81.7755 26.0352 83.9658 26.0352C87.4592 26.0352 88.9842 24.4547 88.9844 21.3496V20.6279C87.6813 22.0696 85.7961 22.7636 83.5781 22.7637C78.8369 22.7637 75.0382 19.4916 75.0381 14.501C75.0381 9.51016 78.8646 6.23828 83.5781 6.23828C85.9624 6.23838 87.9313 7.04196 89.2344 8.67773V6.84766L93.9473 5.68359V20.7119ZM84.5762 10.3135C81.9699 10.3135 80.0566 12.0056 80.0566 14.501C80.0568 17.024 81.97 18.6875 84.5762 18.6875C87.1822 18.6874 89.0672 16.9961 89.0674 14.501C89.0674 11.978 87.1823 10.3136 84.5762 10.3135Z" fill="#012A38"/>
<path fill-rule="evenodd" clip-rule="evenodd" d="M58.8184 23.5947H54.0771V21.627C52.8295 23.124 51.0267 23.8447 48.7256 23.8447C43.9013 23.8445 40.1865 20.4062 40.1865 15.0273C40.1866 9.6486 43.9014 6.21015 48.7256 6.20996C50.8328 6.20996 52.6078 6.87598 53.8555 8.29004V6.90332L58.8184 5.68359V23.5947ZM49.6133 10.2861C47.1456 10.2861 45.2325 12.0607 45.2324 15.0273C45.2324 17.9941 47.1456 19.7686 49.6133 19.7686C52.0532 19.7685 53.9668 17.9941 53.9668 15.0273C53.9667 12.0607 52.0532 10.2861 49.6133 10.2861Z" fill="#012A38"/>
<path fill-rule="evenodd" clip-rule="evenodd" d="M106.098 6.21094C110.839 6.21108 114.72 9.37207 114.914 14.6123L102.576 17.8564C103.38 19.1871 104.877 19.8798 106.846 19.8799C108.648 19.8799 109.951 19.3535 111.144 18.2168L113.777 21.0723C112.197 22.8745 109.812 23.8447 106.707 23.8447C100.802 23.8446 96.9474 20.1298 96.9473 15.0283C96.9473 9.89887 100.83 6.21094 106.098 6.21094ZM106.098 9.98145C103.63 9.98145 101.827 11.5622 101.827 14.917L110.173 12.9209C109.702 11.1742 108.177 9.98157 106.098 9.98145Z" fill="#012A38"/>
<path fill-rule="evenodd" clip-rule="evenodd" d="M122.878 8.29004C124.153 6.90393 125.9 6.21094 128.035 6.21094C132.832 6.23889 136.547 9.67724 136.547 15.0283C136.547 20.4069 132.832 23.8445 128.035 23.8447C125.734 23.8447 123.903 23.1242 122.655 21.627V23.5957H117.914V1.21973L122.878 0V8.29004ZM127.175 10.2861C124.707 10.2863 122.822 12.0617 122.822 15.0283C122.822 17.9947 124.707 19.7694 127.175 19.7695C129.67 19.7695 131.528 17.9948 131.528 15.0283C131.528 12.0616 129.642 10.2861 127.175 10.2861Z" fill="#012A38"/>
<path fill-rule="evenodd" clip-rule="evenodd" d="M147.597 6.21094C152.338 6.21097 156.22 9.37198 156.414 14.6123L144.075 17.8564C144.879 19.1872 146.377 19.8799 148.346 19.8799C150.148 19.8798 151.451 19.3533 152.643 18.2168L155.277 21.0723C153.697 22.8744 151.312 23.8446 148.207 23.8447C142.301 23.8447 138.447 20.1299 138.447 15.0283C138.447 9.89887 142.329 6.21094 147.597 6.21094ZM147.597 9.98145C145.129 9.98145 143.327 11.5622 143.327 14.917L151.673 12.9209C151.202 11.1741 149.676 9.98148 147.597 9.98145Z" fill="#012A38"/>
<path fill-rule="evenodd" clip-rule="evenodd" d="M167.464 6.21094C172.205 6.21108 176.086 9.37207 176.28 14.6123L163.942 17.8564C164.746 19.1871 166.244 19.8798 168.212 19.8799C170.014 19.8799 171.318 19.3535 172.51 18.2168L175.144 21.0723C173.563 22.8745 171.179 23.8447 168.073 23.8447C162.168 23.8446 158.314 20.1298 158.313 15.0283C158.313 9.89887 162.196 6.21094 167.464 6.21094ZM167.464 9.98145C164.996 9.98145 163.193 11.5622 163.193 14.917L171.539 12.9209C171.068 11.1742 169.543 9.98157 167.464 9.98145Z" fill="#012A38"/>
<path d="M9.53809 6.21094C13.1147 6.21096 15.9427 7.62496 17.1904 10.3975L12.6152 11.6172C11.7559 10.7027 10.6749 10.2872 9.51074 10.2871C6.98761 10.2871 5.01855 12.0338 5.01855 15.0283C5.01868 18.0226 6.98769 19.7695 9.51074 19.7695C10.7027 19.7694 11.7559 19.3532 12.6152 18.4385L17.1904 19.5195C15.9427 22.2367 13.1148 23.8174 9.53809 23.8174C3.99284 23.8451 0.000146188 20.1853 0 15.0283C0 9.87115 3.96501 6.21094 9.53809 6.21094Z" fill="#012A38"/>
<path d="M24.7539 8.2627C26.0848 6.93187 27.9981 6.23828 30.1885 6.23828C34.2363 6.23845 37.286 8.59538 37.2861 13.8076V23.5957H32.3232V14.5566C32.3232 11.7841 31.0477 10.5089 28.8574 10.5088C26.4729 10.5088 24.7539 11.9782 24.7539 15.1113V23.5674H19.791V1.19238L24.7539 0V8.2627Z" fill="#012A38"/>
<path d="M67.7598 8.76172C68.952 7.0982 71.0038 6.23832 73.6377 6.23828V10.8135C73.2221 10.7858 72.9172 10.7578 72.5293 10.7578C69.7843 10.7578 67.9814 12.2556 67.9814 15.5273V23.5957H63.0186V6.84863L67.7598 5.71191V8.76172Z" fill="#012A38"/>
</svg>
