<svg width="287" height="30" viewBox="0 0 287 30" fill="none" xmlns="http://www.w3.org/2000/svg">
<path fill-rule="evenodd" clip-rule="evenodd" d="M276.113 6C278.548 6.00006 280.4 6.80178 281.67 8.4043V7.21094L286.29 6.39648V20.2363C286.29 23.3164 285.489 25.6061 283.887 27.1045C282.284 28.6029 279.942 29.3516 276.862 29.3516C275.239 29.3516 273.699 29.1542 272.242 28.7588C270.785 28.3633 269.577 27.7912 268.62 27.042L270.556 23.5449C271.263 24.1277 272.159 24.5859 273.241 24.9189C274.323 25.2726 275.405 25.4492 276.487 25.4492C278.173 25.4492 279.412 25.064 280.203 24.2939C281.015 23.5447 281.42 22.4002 281.42 20.8604V20.1426C280.15 21.5367 278.382 22.2343 276.113 22.2344C274.573 22.2344 273.158 21.9013 271.867 21.2354C270.598 20.5485 269.588 19.5903 268.839 18.3623C268.09 17.1345 267.715 15.7195 267.715 14.1172C267.715 12.5146 268.09 11.099 268.839 9.87109C269.588 8.64316 270.598 7.69628 271.867 7.03027C273.158 6.34345 274.573 6 276.113 6ZM277.081 9.99609C275.791 9.99609 274.729 10.3813 273.896 11.1514C273.064 11.9006 272.647 12.8893 272.647 14.1172C272.648 15.345 273.064 16.3442 273.896 17.1143C274.729 17.8634 275.791 18.2383 277.081 18.2383C278.371 18.2382 279.423 17.8635 280.234 17.1143C281.067 16.3443 281.482 15.345 281.482 14.1172C281.482 12.8894 281.067 11.9006 280.234 11.1514C279.423 10.3813 278.371 9.99615 277.081 9.99609Z" fill="#FF3300"/>
<path fill-rule="evenodd" clip-rule="evenodd" d="M193.87 7.99023C195.098 6.63743 196.784 5.96094 198.928 5.96094C200.489 5.96095 201.904 6.32528 203.174 7.05371C204.464 7.76133 205.474 8.77093 206.202 10.082C206.93 11.3723 207.294 12.8812 207.294 14.6084C207.294 16.3358 206.931 17.8558 206.202 19.167C205.474 20.4573 204.464 21.4669 203.174 22.1953C201.904 22.9029 200.489 23.2568 198.928 23.2568C196.618 23.2568 194.859 22.5282 193.651 21.0713V23.0068H189V0.913086L193.87 0.0546875V7.99023ZM198.085 9.95703C196.836 9.95703 195.806 10.384 194.994 11.2373C194.203 12.0697 193.808 13.1933 193.808 14.6084C193.808 16.0237 194.203 17.1584 194.994 18.0117C195.806 18.8442 196.836 19.2607 198.085 19.2607C199.334 19.2607 200.354 18.8442 201.145 18.0117C201.956 17.1584 202.361 16.0236 202.361 14.6084C202.361 13.1935 201.956 12.0697 201.145 11.2373C200.354 10.384 199.334 9.95708 198.085 9.95703Z" fill="#FF3300"/>
<path d="M214.765 23.0547H209.895V7.9082L214.765 7.0498V23.0547Z" fill="#FF3300"/>
<path d="M222.535 16.9668C222.535 17.6743 222.713 18.2257 223.066 18.6211C223.441 18.9957 223.961 19.1835 224.627 19.1836C224.877 19.1836 225.127 19.1523 225.377 19.0898C225.647 19.0274 225.855 18.9543 226.001 18.8711L226.22 22.6484C225.408 22.919 224.565 23.0547 223.69 23.0547C221.797 23.0546 220.319 22.5546 219.258 21.5557C218.196 20.5358 217.665 19.0994 217.665 17.2471V0.913086L222.535 0.0546875V16.9668Z" fill="#FF3300"/>
<path d="M257.854 6C259.935 6.00005 261.61 6.62433 262.88 7.87305C264.17 9.12173 264.815 10.9741 264.815 13.4297V23.0117H259.945V14.1797C259.945 12.8479 259.654 11.8591 259.071 11.2139C258.489 10.5479 257.645 10.2148 256.542 10.2148C255.314 10.2149 254.336 10.6001 253.607 11.3701C252.879 12.1194 252.515 13.2429 252.515 14.7412V23.0117H247.645V7.21094L252.296 6.39062V8.2168C252.941 7.50917 253.743 6.9674 254.7 6.59277C255.658 6.19738 256.709 6 257.854 6Z" fill="#FF3300"/>
<path d="M232.989 16.9121C232.989 17.6197 233.167 18.1719 233.521 18.5674C233.895 18.9418 234.415 19.1288 235.081 19.1289C235.331 19.1289 235.581 19.0976 235.831 19.0352C236.101 18.9727 236.309 18.8996 236.455 18.8164L236.674 22.5938C235.862 22.8643 235.019 23 234.145 23C232.251 22.9999 230.773 22.5007 229.712 21.502C228.65 20.4821 228.119 19.0457 228.119 17.1934V0.858398L232.989 0V16.9121Z" fill="#FF3300"/>
<path d="M244.443 22.8809H239.573V7.73438L244.443 6.87598V22.8809Z" fill="#FF3300"/>
<path d="M214.766 5.19531L209.895 6.05469V3.0332L214.766 2.17383V5.19531Z" fill="#FF3300"/>
<path d="M244.444 5.02246L239.573 5.88086V2.85938L244.444 2V5.02246Z" fill="#FF3300"/>
<path fill-rule="evenodd" clip-rule="evenodd" d="M93.9473 20.7119C93.9471 27.0609 90.5094 29.9999 84.3545 30C81.1107 30 77.9772 29.1961 75.9531 27.6436L77.9219 24.0938C79.3914 25.2582 81.7755 26.0352 83.9658 26.0352C87.4592 26.0352 88.9842 24.4547 88.9844 21.3496V20.6279C87.6813 22.0696 85.7961 22.7636 83.5781 22.7637C78.8369 22.7637 75.0382 19.4916 75.0381 14.501C75.0381 9.51016 78.8646 6.23828 83.5781 6.23828C85.9624 6.23838 87.9313 7.04196 89.2344 8.67773V6.84766L93.9473 5.68359V20.7119ZM84.5762 10.3135C81.9699 10.3135 80.0566 12.0056 80.0566 14.501C80.0568 17.024 81.97 18.6875 84.5762 18.6875C87.1822 18.6874 89.0672 16.9961 89.0674 14.501C89.0674 11.978 87.1823 10.3136 84.5762 10.3135Z" fill="#012A38"/>
<path fill-rule="evenodd" clip-rule="evenodd" d="M58.8184 23.5947H54.0771V21.627C52.8295 23.124 51.0267 23.8447 48.7256 23.8447C43.9013 23.8445 40.1865 20.4062 40.1865 15.0273C40.1866 9.6486 43.9014 6.21015 48.7256 6.20996C50.8328 6.20996 52.6078 6.87598 53.8555 8.29004V6.90332L58.8184 5.68359V23.5947ZM49.6133 10.2861C47.1456 10.2861 45.2325 12.0607 45.2324 15.0273C45.2324 17.9941 47.1456 19.7686 49.6133 19.7686C52.0532 19.7685 53.9668 17.9941 53.9668 15.0273C53.9667 12.0607 52.0532 10.2861 49.6133 10.2861Z" fill="#012A38"/>
<path fill-rule="evenodd" clip-rule="evenodd" d="M106.098 6.21094C110.839 6.21108 114.72 9.37207 114.914 14.6123L102.576 17.8564C103.38 19.1871 104.877 19.8798 106.846 19.8799C108.648 19.8799 109.951 19.3535 111.144 18.2168L113.777 21.0723C112.197 22.8745 109.812 23.8447 106.707 23.8447C100.802 23.8446 96.9474 20.1298 96.9473 15.0283C96.9473 9.89887 100.83 6.21094 106.098 6.21094ZM106.098 9.98145C103.63 9.98145 101.827 11.5622 101.827 14.917L110.173 12.9209C109.702 11.1742 108.177 9.98157 106.098 9.98145Z" fill="#012A38"/>
<path fill-rule="evenodd" clip-rule="evenodd" d="M122.878 8.29004C124.153 6.90393 125.9 6.21094 128.035 6.21094C132.832 6.23889 136.547 9.67724 136.547 15.0283C136.547 20.4069 132.832 23.8445 128.035 23.8447C125.734 23.8447 123.903 23.1242 122.655 21.627V23.5957H117.914V1.21973L122.878 0V8.29004ZM127.175 10.2861C124.707 10.2863 122.822 12.0617 122.822 15.0283C122.822 17.9947 124.707 19.7694 127.175 19.7695C129.67 19.7695 131.528 17.9948 131.528 15.0283C131.528 12.0616 129.642 10.2861 127.175 10.2861Z" fill="#012A38"/>
<path fill-rule="evenodd" clip-rule="evenodd" d="M147.597 6.21094C152.338 6.21097 156.22 9.37198 156.414 14.6123L144.075 17.8564C144.879 19.1872 146.377 19.8799 148.346 19.8799C150.148 19.8798 151.451 19.3533 152.643 18.2168L155.277 21.0723C153.697 22.8744 151.312 23.8446 148.207 23.8447C142.301 23.8447 138.447 20.1299 138.447 15.0283C138.447 9.89887 142.329 6.21094 147.597 6.21094ZM147.597 9.98145C145.129 9.98145 143.327 11.5622 143.327 14.917L151.673 12.9209C151.202 11.1741 149.676 9.98148 147.597 9.98145Z" fill="#012A38"/>
<path fill-rule="evenodd" clip-rule="evenodd" d="M167.464 6.21094C172.205 6.21108 176.086 9.37207 176.28 14.6123L163.942 17.8564C164.746 19.1871 166.244 19.8798 168.212 19.8799C170.014 19.8799 171.318 19.3535 172.51 18.2168L175.144 21.0723C173.563 22.8745 171.179 23.8447 168.073 23.8447C162.168 23.8446 158.314 20.1298 158.313 15.0283C158.313 9.89887 162.196 6.21094 167.464 6.21094ZM167.464 9.98145C164.996 9.98145 163.193 11.5622 163.193 14.917L171.539 12.9209C171.068 11.1742 169.543 9.98157 167.464 9.98145Z" fill="#012A38"/>
<path d="M9.53809 6.21094C13.1147 6.21096 15.9427 7.62496 17.1904 10.3975L12.6152 11.6172C11.7559 10.7027 10.6749 10.2872 9.51074 10.2871C6.98761 10.2871 5.01855 12.0338 5.01855 15.0283C5.01868 18.0226 6.98769 19.7695 9.51074 19.7695C10.7027 19.7694 11.7559 19.3532 12.6152 18.4385L17.1904 19.5195C15.9427 22.2367 13.1148 23.8174 9.53809 23.8174C3.99284 23.8451 0.000146188 20.1853 0 15.0283C0 9.87115 3.96501 6.21094 9.53809 6.21094Z" fill="#012A38"/>
<path d="M24.7539 8.2627C26.0848 6.93187 27.9981 6.23828 30.1885 6.23828C34.2363 6.23845 37.286 8.59538 37.2861 13.8076V23.5957H32.3232V14.5566C32.3232 11.7841 31.0477 10.5089 28.8574 10.5088C26.4729 10.5088 24.7539 11.9782 24.7539 15.1113V23.5674H19.791V1.19238L24.7539 0V8.2627Z" fill="#012A38"/>
<path d="M67.7598 8.76172C68.952 7.0982 71.0038 6.23832 73.6377 6.23828V10.8135C73.2221 10.7858 72.9172 10.7578 72.5293 10.7578C69.7843 10.7578 67.9814 12.2556 67.9814 15.5273V23.5957H63.0186V6.84863L67.7598 5.71191V8.76172Z" fill="#012A38"/>
</svg>
