<svg width="177" height="64" viewBox="0 0 177 64" fill="none" xmlns="http://www.w3.org/2000/svg">
<path fill-rule="evenodd" clip-rule="evenodd" d="M20.8184 39.9883C22.4208 39.9883 23.8774 40.3319 25.1885 41.0186C26.4996 41.6845 27.5405 42.6628 28.3105 43.9531C29.1014 45.2226 29.497 46.7314 29.4971 48.4795L17.0723 50.8838C17.4261 51.7162 17.9774 52.3406 18.7266 52.7568C19.4966 53.1731 20.4331 53.3808 21.5361 53.3809C22.4103 53.3809 23.1807 53.2566 23.8467 53.0068C24.5335 52.7363 25.1683 52.3197 25.751 51.7578L28.3418 54.5674C26.76 56.3781 24.4498 57.2832 21.4111 57.2832C19.5173 57.2832 17.8416 56.9198 16.3848 56.1914C14.928 55.4422 13.8045 54.4116 13.0137 53.1006C12.2228 51.7894 11.8271 50.3008 11.8271 48.6357C11.8272 46.9917 12.2124 45.5142 12.9824 44.2031C13.7733 42.8711 14.8454 41.8407 16.1982 41.1123C17.5718 40.3631 19.1118 39.9883 20.8184 39.9883ZM20.8184 43.6719C19.5904 43.6719 18.5913 44.0676 17.8213 44.8584C17.0512 45.6493 16.6451 46.7423 16.6035 48.1367L24.7832 46.5439C24.5542 45.6699 24.0855 44.9724 23.3779 44.4521C22.6704 43.932 21.8171 43.6719 20.8184 43.6719Z" fill="#FF3300"/>
<path fill-rule="evenodd" clip-rule="evenodd" d="M58.0674 39.9883C59.6698 39.9883 61.1264 40.3318 62.4375 41.0186C63.7487 41.6846 64.7895 42.6628 65.5596 43.9531C66.3504 45.2226 66.746 46.7314 66.7461 48.4795L54.3213 50.8838C54.6751 51.7162 55.2264 52.3406 55.9756 52.7568C56.7456 53.1731 57.6821 53.3809 58.7852 53.3809C59.6593 53.3809 60.4297 53.2566 61.0957 53.0068C61.7824 52.7363 62.4173 52.3197 63 51.7578L65.5908 54.5674C64.0091 56.3781 61.6988 57.2832 58.6602 57.2832C56.7663 57.2832 55.0906 56.9198 53.6338 56.1914C52.177 55.4422 51.0536 54.4116 50.2627 53.1006C49.4718 51.7894 49.0762 50.3008 49.0762 48.6357C49.0762 46.9917 49.4614 45.5142 50.2314 44.2031C51.0223 42.8712 52.0936 41.8407 53.4463 41.1123C54.8199 40.363 56.3607 39.9883 58.0674 39.9883ZM58.0674 43.6719C56.8395 43.6719 55.8404 44.0676 55.0703 44.8584C54.3002 45.6493 53.8942 46.7423 53.8525 48.1367L62.0322 46.5439C61.8033 45.6699 61.3345 44.9724 60.627 44.4521C59.9194 43.932 59.0661 43.6719 58.0674 43.6719Z" fill="#FF3300"/>
<path fill-rule="evenodd" clip-rule="evenodd" d="M77.0439 39.9883C79.1876 39.9883 80.8632 40.6648 82.0703 42.0176V41.2412L86.9404 40.3828V57.0342H82.2891V55.0986C81.0819 56.5555 79.3333 57.2832 77.0439 57.2832C75.4622 57.2832 74.0257 56.9303 72.7354 56.2227C71.4659 55.5151 70.4667 54.5054 69.7383 53.1943C69.0098 51.8831 68.6465 50.3632 68.6465 48.6357C68.6465 46.9085 69.01 45.3892 69.7383 44.0781C70.4667 42.767 71.4659 41.7574 72.7354 41.0498C74.0257 40.3422 75.4622 39.9883 77.0439 39.9883ZM77.8867 43.9844C76.638 43.9844 75.6076 44.4114 74.7959 45.2646C73.9844 46.0971 73.5782 47.2207 73.5781 48.6357C73.5781 50.051 73.9842 51.1857 74.7959 52.0391C75.6076 52.8715 76.638 53.2871 77.8867 53.2871C79.1146 53.2871 80.1346 52.8715 80.9463 52.0391C81.758 51.1857 82.1641 50.051 82.1641 48.6357C82.164 47.2207 81.7578 46.0971 80.9463 45.2646C80.1346 44.4113 79.1147 43.9844 77.8867 43.9844Z" fill="#FF3300"/>
<path d="M10.4268 44.4951C9.88632 44.4535 9.52237 44.4327 9.33496 44.4326C7.94064 44.4326 6.84751 44.8284 6.05664 45.6191C5.26576 46.3892 4.87012 47.5553 4.87012 49.1162V57H0V41.2295L4.65137 40.4092V42.4658C5.23411 41.6542 6.01505 41.0402 6.99316 40.624C7.99202 40.2079 9.13663 40 10.4268 40V44.4951Z" fill="#FF3300"/>
<path d="M39.3701 51.6299L44.1172 40.3486L48.4766 41.1172L41.7744 57H36.748L30.0967 41.167L34.7754 40.3418L39.3701 51.6299Z" fill="#FF3300"/>
<path d="M95.0107 50.9121C95.0107 51.6197 95.1872 52.1719 95.541 52.5674C95.9156 52.942 96.4366 53.1289 97.1025 53.1289C97.3522 53.1289 97.6019 53.0976 97.8516 53.0352C98.122 52.9727 98.3299 52.8996 98.4756 52.8164L98.6943 56.5938C97.8827 56.8643 97.04 57 96.166 57C94.2721 57 92.7939 56.5009 91.7324 55.502C90.671 54.4821 90.1406 53.0457 90.1406 51.1934V34.8584L95.0107 34V50.9121Z" fill="#FF3300"/>
<path fill-rule="evenodd" clip-rule="evenodd" d="M93.9473 20.7119C93.9471 27.0609 90.5094 29.9999 84.3545 30C81.1107 30 77.9772 29.1961 75.9531 27.6436L77.9219 24.0938C79.3914 25.2582 81.7755 26.0352 83.9658 26.0352C87.4592 26.0352 88.9842 24.4547 88.9844 21.3496V20.6279C87.6813 22.0696 85.7961 22.7636 83.5781 22.7637C78.8369 22.7637 75.0382 19.4916 75.0381 14.501C75.0381 9.51016 78.8646 6.23828 83.5781 6.23828C85.9624 6.23838 87.9313 7.04196 89.2344 8.67773V6.84766L93.9473 5.68359V20.7119ZM84.5762 10.3135C81.9699 10.3135 80.0566 12.0056 80.0566 14.501C80.0568 17.024 81.97 18.6875 84.5762 18.6875C87.1822 18.6874 89.0672 16.9961 89.0674 14.501C89.0674 11.978 87.1823 10.3136 84.5762 10.3135Z" fill="#012A38"/>
<path fill-rule="evenodd" clip-rule="evenodd" d="M58.8184 23.5947H54.0771V21.627C52.8295 23.124 51.0267 23.8447 48.7256 23.8447C43.9013 23.8445 40.1865 20.4062 40.1865 15.0273C40.1866 9.6486 43.9014 6.21015 48.7256 6.20996C50.8328 6.20996 52.6078 6.87598 53.8555 8.29004V6.90332L58.8184 5.68359V23.5947ZM49.6133 10.2861C47.1456 10.2861 45.2325 12.0607 45.2324 15.0273C45.2324 17.9941 47.1456 19.7686 49.6133 19.7686C52.0532 19.7685 53.9668 17.9941 53.9668 15.0273C53.9667 12.0607 52.0532 10.2861 49.6133 10.2861Z" fill="#012A38"/>
<path fill-rule="evenodd" clip-rule="evenodd" d="M106.098 6.21094C110.839 6.21108 114.72 9.37207 114.914 14.6123L102.576 17.8564C103.38 19.1871 104.877 19.8798 106.846 19.8799C108.648 19.8799 109.951 19.3535 111.144 18.2168L113.777 21.0723C112.197 22.8745 109.812 23.8447 106.707 23.8447C100.802 23.8446 96.9474 20.1298 96.9473 15.0283C96.9473 9.89887 100.83 6.21094 106.098 6.21094ZM106.098 9.98145C103.63 9.98145 101.827 11.5622 101.827 14.917L110.173 12.9209C109.702 11.1742 108.177 9.98157 106.098 9.98145Z" fill="#012A38"/>
<path fill-rule="evenodd" clip-rule="evenodd" d="M122.878 8.29004C124.153 6.90393 125.9 6.21094 128.035 6.21094C132.832 6.23889 136.547 9.67724 136.547 15.0283C136.547 20.4069 132.832 23.8445 128.035 23.8447C125.734 23.8447 123.903 23.1242 122.655 21.627V23.5957H117.914V1.21973L122.878 0V8.29004ZM127.175 10.2861C124.707 10.2863 122.822 12.0617 122.822 15.0283C122.822 17.9947 124.707 19.7694 127.175 19.7695C129.67 19.7695 131.528 17.9948 131.528 15.0283C131.528 12.0616 129.642 10.2861 127.175 10.2861Z" fill="#012A38"/>
<path fill-rule="evenodd" clip-rule="evenodd" d="M147.597 6.21094C152.338 6.21097 156.22 9.37198 156.414 14.6123L144.075 17.8564C144.879 19.1872 146.377 19.8799 148.346 19.8799C150.148 19.8798 151.451 19.3533 152.643 18.2168L155.277 21.0723C153.697 22.8744 151.312 23.8446 148.207 23.8447C142.301 23.8447 138.447 20.1299 138.447 15.0283C138.447 9.89887 142.329 6.21094 147.597 6.21094ZM147.597 9.98145C145.129 9.98145 143.327 11.5622 143.327 14.917L151.673 12.9209C151.202 11.1741 149.676 9.98148 147.597 9.98145Z" fill="#012A38"/>
<path fill-rule="evenodd" clip-rule="evenodd" d="M167.464 6.21094C172.205 6.21108 176.086 9.37207 176.28 14.6123L163.942 17.8564C164.746 19.1871 166.244 19.8798 168.212 19.8799C170.014 19.8799 171.318 19.3535 172.51 18.2168L175.144 21.0723C173.563 22.8745 171.179 23.8447 168.073 23.8447C162.168 23.8446 158.314 20.1298 158.313 15.0283C158.313 9.89887 162.196 6.21094 167.464 6.21094ZM167.464 9.98145C164.996 9.98145 163.193 11.5622 163.193 14.917L171.539 12.9209C171.068 11.1742 169.543 9.98157 167.464 9.98145Z" fill="#012A38"/>
<path d="M9.53809 6.21094C13.1147 6.21096 15.9427 7.62496 17.1904 10.3975L12.6152 11.6172C11.7559 10.7027 10.6749 10.2872 9.51074 10.2871C6.98761 10.2871 5.01855 12.0338 5.01855 15.0283C5.01868 18.0226 6.98769 19.7695 9.51074 19.7695C10.7027 19.7694 11.7559 19.3532 12.6152 18.4385L17.1904 19.5195C15.9427 22.2367 13.1148 23.8174 9.53809 23.8174C3.99284 23.8451 0.000146188 20.1853 0 15.0283C0 9.87115 3.96501 6.21094 9.53809 6.21094Z" fill="#012A38"/>
<path d="M24.7539 8.2627C26.0848 6.93187 27.9981 6.23828 30.1885 6.23828C34.2363 6.23845 37.286 8.59538 37.2861 13.8076V23.5957H32.3232V14.5566C32.3232 11.7841 31.0477 10.5089 28.8574 10.5088C26.4729 10.5088 24.7539 11.9782 24.7539 15.1113V23.5674H19.791V1.19238L24.7539 0V8.2627Z" fill="#012A38"/>
<path d="M67.7598 8.76172C68.952 7.0982 71.0038 6.23832 73.6377 6.23828V10.8135C73.2221 10.7858 72.9172 10.7578 72.5293 10.7578C69.7843 10.7578 67.9814 12.2556 67.9814 15.5273V23.5957H63.0186V6.84863L67.7598 5.71191V8.76172Z" fill="#012A38"/>
</svg>
