<svg width="177" height="64" viewBox="0 0 177 64" fill="none" xmlns="http://www.w3.org/2000/svg">
<path fill-rule="evenodd" clip-rule="evenodd" d="M20.8184 39.9883C22.4208 39.9883 23.8774 40.3319 25.1885 41.0186C26.4996 41.6845 27.5405 42.6628 28.3105 43.9531C29.1014 45.2226 29.497 46.7314 29.4971 48.4795L17.0723 50.8838C17.4261 51.7162 17.9774 52.3406 18.7266 52.7568C19.4966 53.1731 20.4331 53.3808 21.5361 53.3809C22.4103 53.3809 23.1807 53.2566 23.8467 53.0068C24.5335 52.7363 25.1683 52.3197 25.751 51.7578L28.3418 54.5674C26.76 56.3781 24.4498 57.2832 21.4111 57.2832C19.5173 57.2832 17.8416 56.9198 16.3848 56.1914C14.928 55.4422 13.8045 54.4116 13.0137 53.1006C12.2228 51.7894 11.8271 50.3008 11.8271 48.6357C11.8272 46.9917 12.2124 45.5142 12.9824 44.2031C13.7733 42.8711 14.8454 41.8407 16.1982 41.1123C17.5718 40.3631 19.1118 39.9883 20.8184 39.9883ZM20.8184 43.6719C19.5904 43.6719 18.5913 44.0676 17.8213 44.8584C17.0512 45.6493 16.6451 46.7423 16.6035 48.1367L24.7832 46.5439C24.5542 45.6699 24.0855 44.9724 23.3779 44.4521C22.6704 43.932 21.8171 43.6719 20.8184 43.6719Z" fill="#FF3300"/>
<path fill-rule="evenodd" clip-rule="evenodd" d="M71.4941 39.9883C73.0967 39.9883 74.554 40.3317 75.8652 41.0186C77.1763 41.6846 78.2173 42.6628 78.9873 43.9531C79.778 45.2226 80.1728 46.7315 80.1729 48.4795L67.748 50.8838C68.1018 51.7162 68.6532 52.3406 69.4023 52.7568C70.1723 53.173 71.109 53.3808 72.2119 53.3809C73.086 53.3809 73.8565 53.2566 74.5225 53.0068C75.2093 52.7363 75.844 52.3197 76.4268 51.7578L79.0176 54.5674C77.4359 56.3779 75.1262 57.2831 72.0879 57.2832C70.1941 57.2832 68.5183 56.9197 67.0615 56.1914C65.6047 55.4422 64.4803 54.4117 63.6895 53.1006C62.8986 51.7894 62.5029 50.3008 62.5029 48.6357C62.503 46.9917 62.8883 45.5142 63.6582 44.2031C64.4491 42.8711 65.5212 41.8407 66.874 41.1123C68.2476 40.3631 69.7876 39.9883 71.4941 39.9883ZM71.4941 43.6719C70.2662 43.6719 69.2671 44.0675 68.4971 44.8584C67.727 45.6493 67.3209 46.7423 67.2793 48.1367L75.459 46.5439C75.23 45.67 74.7622 44.9724 74.0547 44.4521C73.3471 43.9318 72.4931 43.6719 71.4941 43.6719Z" fill="#FF3300"/>
<path d="M91.4385 39.9883C93.2076 39.9883 94.7484 40.363 96.0596 41.1123C97.3431 41.8143 98.2884 42.816 98.8955 44.1172L94.124 44.959C93.381 44.3093 92.4751 43.9844 91.4072 43.9844C90.1378 43.9845 89.0873 44.401 88.2549 45.2334C87.4224 46.0659 87.0059 47.1998 87.0059 48.6357C87.0059 50.0718 87.4224 51.2066 88.2549 52.0391C89.0873 52.8713 90.138 53.287 91.4072 53.2871C92.4793 53.2871 93.3836 52.9685 94.1191 52.3301L98.8994 53.1729C98.2924 54.4403 97.3462 55.4364 96.0596 56.1602C94.7484 56.9094 93.2076 57.2832 91.4385 57.2832C89.6487 57.2832 88.0356 56.9198 86.5996 56.1914C85.1845 55.4422 84.0714 54.4116 83.2598 53.1006C82.4689 51.7894 82.0732 50.3008 82.0732 48.6357C82.0733 46.9708 82.4689 45.483 83.2598 44.1719C84.0714 42.8608 85.1845 41.8407 86.5996 41.1123C88.0356 40.3631 89.6487 39.9883 91.4385 39.9883Z" fill="#FF3300"/>
<path d="M10.4268 44.4951C9.88632 44.4535 9.52237 44.4327 9.33496 44.4326C7.94064 44.4326 6.84751 44.8284 6.05664 45.6191C5.26576 46.3892 4.87012 47.5553 4.87012 49.1162V57H0V41.2295L4.65137 40.4092V42.4658C5.23411 41.6542 6.01505 41.0402 6.99316 40.624C7.99202 40.2079 9.13663 40 10.4268 40V44.4951Z" fill="#FF3300"/>
<path d="M39.3701 51.6299L44.1172 40.3486L48.4766 41.1172L41.7744 57H36.748L30.0967 41.167L34.7754 40.3418L39.3701 51.6299Z" fill="#FF3300"/>
<path d="M61.1035 44.4951C60.5626 44.4535 60.1981 44.4326 60.0107 44.4326C58.6163 44.4326 57.5233 44.8283 56.7324 45.6191C55.9415 46.3892 55.5459 47.5553 55.5459 49.1162V57H50.6758V41.2295L55.3281 40.4092V42.4658C55.9108 41.6544 56.691 41.0402 57.6689 40.624C58.668 40.2078 59.8131 40 61.1035 40V44.4951Z" fill="#FF3300"/>
<path fill-rule="evenodd" clip-rule="evenodd" d="M93.9473 20.7119C93.9471 27.0609 90.5094 29.9999 84.3545 30C81.1107 30 77.9772 29.1961 75.9531 27.6436L77.9219 24.0938C79.3914 25.2582 81.7755 26.0352 83.9658 26.0352C87.4592 26.0352 88.9842 24.4547 88.9844 21.3496V20.6279C87.6813 22.0696 85.7961 22.7636 83.5781 22.7637C78.8369 22.7637 75.0382 19.4916 75.0381 14.501C75.0381 9.51016 78.8646 6.23828 83.5781 6.23828C85.9624 6.23838 87.9313 7.04196 89.2344 8.67773V6.84766L93.9473 5.68359V20.7119ZM84.5762 10.3135C81.9699 10.3135 80.0566 12.0056 80.0566 14.501C80.0568 17.024 81.97 18.6875 84.5762 18.6875C87.1822 18.6874 89.0672 16.9961 89.0674 14.501C89.0674 11.978 87.1823 10.3136 84.5762 10.3135Z" fill="#012A38"/>
<path fill-rule="evenodd" clip-rule="evenodd" d="M58.8184 23.5947H54.0771V21.627C52.8295 23.124 51.0267 23.8447 48.7256 23.8447C43.9013 23.8445 40.1865 20.4062 40.1865 15.0273C40.1866 9.6486 43.9014 6.21015 48.7256 6.20996C50.8328 6.20996 52.6078 6.87598 53.8555 8.29004V6.90332L58.8184 5.68359V23.5947ZM49.6133 10.2861C47.1456 10.2861 45.2325 12.0607 45.2324 15.0273C45.2324 17.9941 47.1456 19.7686 49.6133 19.7686C52.0532 19.7685 53.9668 17.9941 53.9668 15.0273C53.9667 12.0607 52.0532 10.2861 49.6133 10.2861Z" fill="#012A38"/>
<path fill-rule="evenodd" clip-rule="evenodd" d="M106.098 6.21094C110.839 6.21108 114.72 9.37207 114.914 14.6123L102.576 17.8564C103.38 19.1871 104.877 19.8798 106.846 19.8799C108.648 19.8799 109.951 19.3535 111.144 18.2168L113.777 21.0723C112.197 22.8745 109.812 23.8447 106.707 23.8447C100.802 23.8446 96.9474 20.1298 96.9473 15.0283C96.9473 9.89887 100.83 6.21094 106.098 6.21094ZM106.098 9.98145C103.63 9.98145 101.827 11.5622 101.827 14.917L110.173 12.9209C109.702 11.1742 108.177 9.98157 106.098 9.98145Z" fill="#012A38"/>
<path fill-rule="evenodd" clip-rule="evenodd" d="M122.878 8.29004C124.153 6.90393 125.9 6.21094 128.035 6.21094C132.832 6.23889 136.547 9.67724 136.547 15.0283C136.547 20.4069 132.832 23.8445 128.035 23.8447C125.734 23.8447 123.903 23.1242 122.655 21.627V23.5957H117.914V1.21973L122.878 0V8.29004ZM127.175 10.2861C124.707 10.2863 122.822 12.0617 122.822 15.0283C122.822 17.9947 124.707 19.7694 127.175 19.7695C129.67 19.7695 131.528 17.9948 131.528 15.0283C131.528 12.0616 129.642 10.2861 127.175 10.2861Z" fill="#012A38"/>
<path fill-rule="evenodd" clip-rule="evenodd" d="M147.597 6.21094C152.338 6.21097 156.22 9.37198 156.414 14.6123L144.075 17.8564C144.879 19.1872 146.377 19.8799 148.346 19.8799C150.148 19.8798 151.451 19.3533 152.643 18.2168L155.277 21.0723C153.697 22.8744 151.312 23.8446 148.207 23.8447C142.301 23.8447 138.447 20.1299 138.447 15.0283C138.447 9.89887 142.329 6.21094 147.597 6.21094ZM147.597 9.98145C145.129 9.98145 143.327 11.5622 143.327 14.917L151.673 12.9209C151.202 11.1741 149.676 9.98148 147.597 9.98145Z" fill="#012A38"/>
<path fill-rule="evenodd" clip-rule="evenodd" d="M167.464 6.21094C172.205 6.21108 176.086 9.37207 176.28 14.6123L163.942 17.8564C164.746 19.1871 166.244 19.8798 168.212 19.8799C170.014 19.8799 171.318 19.3535 172.51 18.2168L175.144 21.0723C173.563 22.8745 171.179 23.8447 168.073 23.8447C162.168 23.8446 158.314 20.1298 158.313 15.0283C158.313 9.89887 162.196 6.21094 167.464 6.21094ZM167.464 9.98145C164.996 9.98145 163.193 11.5622 163.193 14.917L171.539 12.9209C171.068 11.1742 169.543 9.98157 167.464 9.98145Z" fill="#012A38"/>
<path d="M9.53809 6.21094C13.1147 6.21096 15.9427 7.62496 17.1904 10.3975L12.6152 11.6172C11.7559 10.7027 10.6749 10.2872 9.51074 10.2871C6.98761 10.2871 5.01855 12.0338 5.01855 15.0283C5.01868 18.0226 6.98769 19.7695 9.51074 19.7695C10.7027 19.7694 11.7559 19.3532 12.6152 18.4385L17.1904 19.5195C15.9427 22.2367 13.1148 23.8174 9.53809 23.8174C3.99284 23.8451 0.000146188 20.1853 0 15.0283C0 9.87115 3.96501 6.21094 9.53809 6.21094Z" fill="#012A38"/>
<path d="M24.7539 8.2627C26.0848 6.93187 27.9981 6.23828 30.1885 6.23828C34.2363 6.23845 37.286 8.59538 37.2861 13.8076V23.5957H32.3232V14.5566C32.3232 11.7841 31.0477 10.5089 28.8574 10.5088C26.4729 10.5088 24.7539 11.9782 24.7539 15.1113V23.5674H19.791V1.19238L24.7539 0V8.2627Z" fill="#012A38"/>
<path d="M67.7598 8.76172C68.952 7.0982 71.0038 6.23832 73.6377 6.23828V10.8135C73.2221 10.7858 72.9172 10.7578 72.5293 10.7578C69.7843 10.7578 67.9814 12.2556 67.9814 15.5273V23.5957H63.0186V6.84863L67.7598 5.71191V8.76172Z" fill="#012A38"/>
</svg>
