<svg width="177" height="64" viewBox="0 0 177 64" fill="none" xmlns="http://www.w3.org/2000/svg">
<path fill-rule="evenodd" clip-rule="evenodd" d="M93.9473 20.7119C93.9471 27.0609 90.5094 29.9999 84.3545 30C81.1107 30 77.9772 29.1961 75.9531 27.6436L77.9219 24.0938C79.3914 25.2582 81.7755 26.0352 83.9658 26.0352C87.4592 26.0352 88.9842 24.4547 88.9844 21.3496V20.6279C87.6813 22.0696 85.7961 22.7636 83.5781 22.7637C78.8369 22.7637 75.0382 19.4916 75.0381 14.501C75.0381 9.51016 78.8646 6.23828 83.5781 6.23828C85.9624 6.23838 87.9313 7.04196 89.2344 8.67773V6.84766L93.9473 5.68359V20.7119ZM84.5762 10.3135C81.9699 10.3135 80.0566 12.0056 80.0566 14.501C80.0568 17.024 81.97 18.6875 84.5762 18.6875C87.1822 18.6874 89.0672 16.9961 89.0674 14.501C89.0674 11.978 87.1823 10.3136 84.5762 10.3135Z" fill="#012A38"/>
<path fill-rule="evenodd" clip-rule="evenodd" d="M58.8184 23.5947H54.0771V21.627C52.8295 23.124 51.0267 23.8447 48.7256 23.8447C43.9013 23.8445 40.1865 20.4062 40.1865 15.0273C40.1866 9.6486 43.9014 6.21015 48.7256 6.20996C50.8328 6.20996 52.6078 6.87598 53.8555 8.29004V6.90332L58.8184 5.68359V23.5947ZM49.6133 10.2861C47.1456 10.2861 45.2325 12.0607 45.2324 15.0273C45.2324 17.9941 47.1456 19.7686 49.6133 19.7686C52.0532 19.7685 53.9668 17.9941 53.9668 15.0273C53.9667 12.0607 52.0532 10.2861 49.6133 10.2861Z" fill="#012A38"/>
<path fill-rule="evenodd" clip-rule="evenodd" d="M106.098 6.21094C110.839 6.21108 114.72 9.37207 114.914 14.6123L102.576 17.8564C103.38 19.1871 104.877 19.8798 106.846 19.8799C108.648 19.8799 109.951 19.3535 111.144 18.2168L113.777 21.0723C112.197 22.8745 109.812 23.8447 106.707 23.8447C100.802 23.8446 96.9474 20.1298 96.9473 15.0283C96.9473 9.89887 100.83 6.21094 106.098 6.21094ZM106.098 9.98145C103.63 9.98145 101.827 11.5622 101.827 14.917L110.173 12.9209C109.702 11.1742 108.177 9.98157 106.098 9.98145Z" fill="#012A38"/>
<path fill-rule="evenodd" clip-rule="evenodd" d="M122.878 8.29004C124.153 6.90393 125.9 6.21094 128.035 6.21094C132.832 6.23889 136.547 9.67724 136.547 15.0283C136.547 20.4069 132.832 23.8445 128.035 23.8447C125.734 23.8447 123.903 23.1242 122.655 21.627V23.5957H117.914V1.21973L122.878 0V8.29004ZM127.175 10.2861C124.707 10.2863 122.822 12.0617 122.822 15.0283C122.822 17.9947 124.707 19.7694 127.175 19.7695C129.67 19.7695 131.528 17.9948 131.528 15.0283C131.528 12.0616 129.642 10.2861 127.175 10.2861Z" fill="#012A38"/>
<path fill-rule="evenodd" clip-rule="evenodd" d="M147.597 6.21094C152.338 6.21097 156.22 9.37198 156.414 14.6123L144.075 17.8564C144.879 19.1872 146.377 19.8799 148.346 19.8799C150.148 19.8798 151.451 19.3533 152.643 18.2168L155.277 21.0723C153.697 22.8744 151.312 23.8446 148.207 23.8447C142.301 23.8447 138.447 20.1299 138.447 15.0283C138.447 9.89887 142.329 6.21094 147.597 6.21094ZM147.597 9.98145C145.129 9.98145 143.327 11.5622 143.327 14.917L151.673 12.9209C151.202 11.1741 149.676 9.98148 147.597 9.98145Z" fill="#012A38"/>
<path fill-rule="evenodd" clip-rule="evenodd" d="M167.464 6.21094C172.205 6.21108 176.086 9.37207 176.28 14.6123L163.942 17.8564C164.746 19.1871 166.244 19.8798 168.212 19.8799C170.014 19.8799 171.318 19.3535 172.51 18.2168L175.144 21.0723C173.563 22.8745 171.179 23.8447 168.073 23.8447C162.168 23.8446 158.314 20.1298 158.313 15.0283C158.313 9.89887 162.196 6.21094 167.464 6.21094ZM167.464 9.98145C164.996 9.98145 163.193 11.5622 163.193 14.917L171.539 12.9209C171.068 11.1742 169.543 9.98157 167.464 9.98145Z" fill="#012A38"/>
<path d="M9.53809 6.21094C13.1147 6.21096 15.9427 7.62496 17.1904 10.3975L12.6152 11.6172C11.7559 10.7027 10.6749 10.2872 9.51074 10.2871C6.98761 10.2871 5.01855 12.0338 5.01855 15.0283C5.01868 18.0226 6.98769 19.7695 9.51074 19.7695C10.7027 19.7694 11.7559 19.3532 12.6152 18.4385L17.1904 19.5195C15.9427 22.2367 13.1148 23.8174 9.53809 23.8174C3.99284 23.8451 0.000146188 20.1853 0 15.0283C0 9.87115 3.96501 6.21094 9.53809 6.21094Z" fill="#012A38"/>
<path d="M24.7539 8.2627C26.0848 6.93187 27.9981 6.23828 30.1885 6.23828C34.2363 6.23845 37.286 8.59538 37.2861 13.8076V23.5957H32.3232V14.5566C32.3232 11.7841 31.0477 10.5089 28.8574 10.5088C26.4729 10.5088 24.7539 11.9782 24.7539 15.1113V23.5674H19.791V1.19238L24.7539 0V8.2627Z" fill="#012A38"/>
<path d="M67.7598 8.76172C68.952 7.0982 71.0038 6.23832 73.6377 6.23828V10.8135C73.2221 10.7858 72.9172 10.7578 72.5293 10.7578C69.7843 10.7578 67.9814 12.2556 67.9814 15.5273V23.5957H63.0186V6.84863L67.7598 5.71191V8.76172Z" fill="#012A38"/>
<path fill-rule="evenodd" clip-rule="evenodd" d="M8.39746 40C10.8325 40 12.6855 40.8017 13.9551 42.4043V41.2109L18.5752 40.3965V54.2363C18.5751 57.3164 17.7744 59.6061 16.1719 61.1045C14.5693 62.603 12.2276 63.3515 9.14746 63.3516C7.52407 63.3516 5.98325 63.1542 4.52637 62.7588C3.06969 62.3634 1.86256 61.7911 0.905273 61.042L2.84082 57.5449C3.54839 58.1276 4.44326 58.5859 5.52539 58.9189C6.60762 59.2728 7.69023 59.4492 8.77246 59.4492C10.4583 59.4492 11.6964 59.064 12.4873 58.2939C13.299 57.5447 13.7051 56.4004 13.7051 54.8604V54.1426C12.4355 55.5369 10.6659 56.2344 8.39746 56.2344C6.85764 56.2343 5.44251 55.9012 4.15234 55.2354C2.88277 54.5485 1.87328 53.5903 1.12402 52.3623C0.374907 51.1345 3.75978e-05 49.7196 0 48.1172C0 46.5146 0.374767 45.099 1.12402 43.8711C1.87327 42.6432 2.88281 41.6963 4.15234 41.0303C5.44256 40.3436 6.85756 40.0001 8.39746 40ZM9.36523 43.9961C8.07508 43.9962 7.01404 44.3814 6.18164 45.1514C5.34913 45.9006 4.93262 46.8892 4.93262 48.1172C4.93267 49.345 5.34919 50.3442 6.18164 51.1143C7.014 51.8632 8.07521 52.2382 9.36523 52.2383C10.6555 52.2383 11.7069 51.8633 12.5186 51.1143C13.351 50.3442 13.7675 49.345 13.7676 48.1172C13.7676 46.8892 13.3511 45.9006 12.5186 45.1514C11.7069 44.3813 10.6556 43.9961 9.36523 43.9961Z" fill="#FF3300"/>
<path d="M32.2021 44.4951C31.6612 44.4535 31.2967 44.4326 31.1094 44.4326C29.7153 44.4327 28.6228 44.8285 27.832 45.6191C27.0411 46.3892 26.6455 47.5553 26.6455 49.1162V57H21.7754V41.2295L26.4268 40.4092V42.4658C27.0095 41.6542 27.7905 41.0402 28.7686 40.624C29.7674 40.2079 30.912 40 32.2021 40V44.4951Z" fill="#FF3300"/>
<path fill-rule="evenodd" clip-rule="evenodd" d="M42.6172 40C44.343 40 45.8867 40.3681 47.2471 41.1045C48.6075 41.8205 49.6737 42.8235 50.4453 44.1123C51.2167 45.401 51.6025 46.8636 51.6025 48.5C51.6025 50.1364 51.2167 51.599 50.4453 52.8877C49.6738 54.1765 48.6074 55.1893 47.2471 55.9258C45.8867 56.6418 44.3431 57 42.6172 57C40.8915 56.9999 39.3386 56.6417 37.958 55.9258C36.5976 55.1893 35.5313 54.1765 34.7598 52.8877C33.9883 51.599 33.6025 50.1365 33.6025 48.5C33.6025 46.8635 33.9883 45.401 34.7598 44.1123C35.5313 42.8235 36.5976 41.8205 37.958 41.1045C39.3385 40.3682 40.8916 40.0001 42.6172 40ZM42.6172 43.9277C41.3992 43.9278 40.3943 44.3471 39.6025 45.1855C38.8107 46.0038 38.415 47.1089 38.415 48.5C38.415 49.8911 38.8107 51.006 39.6025 51.8447C40.3943 52.6629 41.3991 53.0722 42.6172 53.0723C43.8355 53.0723 44.831 52.663 45.6025 51.8447C46.3944 51.006 46.79 49.8911 46.79 48.5C46.79 47.1089 46.3944 46.0038 45.6025 45.1855C44.831 44.3469 43.8354 43.9277 42.6172 43.9277Z" fill="#FF3300"/>
<path d="M88.4336 40.3291H92.5859V44.0752H88.4336V50.9121C88.4336 51.6197 88.611 52.171 88.9648 52.5664C89.3187 52.941 89.8281 53.1289 90.4941 53.1289C91.2433 53.1289 91.9095 52.921 92.4922 52.5049L93.7725 55.9385C93.2938 56.2923 92.6998 56.5627 91.9922 56.75C91.3056 56.9164 90.5879 57 89.8389 57C87.8201 57 86.2688 56.4905 85.1865 55.4707C84.1043 54.4509 83.5635 52.9518 83.5635 50.9746V36.8584L88.4336 36V40.3291Z" fill="#FF3300"/>
<path d="M100.542 41.9033C101.187 41.2581 101.968 40.7686 102.884 40.4355C103.799 40.0818 104.799 39.9053 105.881 39.9053C107.962 39.9053 109.638 40.5296 110.907 41.7783C112.197 43.027 112.843 44.8793 112.843 47.335V56.9512H107.973V48.085C107.973 46.7532 107.681 45.7643 107.099 45.1191C106.516 44.4531 105.672 44.1201 104.569 44.1201C103.342 44.1202 102.363 44.5045 101.635 45.2744C100.906 46.0237 100.542 47.148 100.542 48.6465V56.9512H95.6719V34.8584L100.542 34V41.9033Z" fill="#FF3300"/>
<path d="M58.8721 48.7471C58.8721 50.1415 59.1121 51.1719 59.5908 51.8379C60.0695 52.483 60.8183 52.8056 61.8379 52.8057C62.8785 52.8057 63.6489 52.4726 64.1484 51.8066C64.6479 51.1406 64.8975 50.1206 64.8975 48.7471V40.8613L69.7676 40.0029V48.7471C69.7676 50.1207 70.0181 51.1406 70.5176 51.8066C71.0171 52.4725 71.7867 52.8056 72.8271 52.8057C73.847 52.8057 74.5965 52.4831 75.0752 51.8379C75.5538 51.1719 75.793 50.1414 75.793 48.7471V40.8633L80.6631 40.0049V49.1221C80.6631 51.5987 79.9866 53.5134 78.6338 54.8662C77.281 56.219 75.3558 56.8955 72.8584 56.8955C71.6513 56.8955 70.5791 56.7086 69.6426 56.334C68.7269 55.9593 67.9573 55.3549 67.333 54.5225C66.7086 55.355 65.9382 55.9594 65.0225 56.334C64.1068 56.7085 63.024 56.8955 61.7754 56.8955C59.2573 56.8954 57.3319 56.219 56 54.8662C54.6681 53.5134 54.002 51.5986 54.002 49.1221V40.8584L58.8721 40V48.7471Z" fill="#FF3300"/>
</svg>
