<svg width="306" height="30" viewBox="0 0 306 30" fill="none" xmlns="http://www.w3.org/2000/svg">
<path fill-rule="evenodd" clip-rule="evenodd" d="M93.9473 20.7119C93.9471 27.0609 90.5094 29.9999 84.3545 30C81.1107 30 77.9772 29.1961 75.9531 27.6436L77.9219 24.0938C79.3914 25.2582 81.7755 26.0352 83.9658 26.0352C87.4592 26.0352 88.9842 24.4547 88.9844 21.3496V20.6279C87.6813 22.0696 85.7961 22.7636 83.5781 22.7637C78.8369 22.7637 75.0382 19.4916 75.0381 14.501C75.0381 9.51016 78.8646 6.23828 83.5781 6.23828C85.9624 6.23838 87.9313 7.04196 89.2344 8.67773V6.84766L93.9473 5.68359V20.7119ZM84.5762 10.3135C81.9699 10.3135 80.0566 12.0056 80.0566 14.501C80.0568 17.024 81.97 18.6875 84.5762 18.6875C87.1822 18.6874 89.0672 16.9961 89.0674 14.501C89.0674 11.978 87.1823 10.3136 84.5762 10.3135Z" fill="#012A38"/>
<path fill-rule="evenodd" clip-rule="evenodd" d="M58.8184 23.5947H54.0771V21.627C52.8295 23.124 51.0267 23.8447 48.7256 23.8447C43.9013 23.8445 40.1865 20.4062 40.1865 15.0273C40.1866 9.6486 43.9014 6.21015 48.7256 6.20996C50.8328 6.20996 52.6078 6.87598 53.8555 8.29004V6.90332L58.8184 5.68359V23.5947ZM49.6133 10.2861C47.1456 10.2861 45.2325 12.0607 45.2324 15.0273C45.2324 17.9941 47.1456 19.7686 49.6133 19.7686C52.0532 19.7685 53.9668 17.9941 53.9668 15.0273C53.9667 12.0607 52.0532 10.2861 49.6133 10.2861Z" fill="#012A38"/>
<path fill-rule="evenodd" clip-rule="evenodd" d="M106.098 6.21094C110.839 6.21108 114.72 9.37207 114.914 14.6123L102.576 17.8564C103.38 19.1871 104.877 19.8798 106.846 19.8799C108.648 19.8799 109.951 19.3535 111.144 18.2168L113.777 21.0723C112.197 22.8745 109.812 23.8447 106.707 23.8447C100.802 23.8446 96.9474 20.1298 96.9473 15.0283C96.9473 9.89887 100.83 6.21094 106.098 6.21094ZM106.098 9.98145C103.63 9.98145 101.827 11.5622 101.827 14.917L110.173 12.9209C109.702 11.1742 108.177 9.98157 106.098 9.98145Z" fill="#012A38"/>
<path fill-rule="evenodd" clip-rule="evenodd" d="M122.878 8.29004C124.153 6.90393 125.9 6.21094 128.035 6.21094C132.832 6.23889 136.547 9.67724 136.547 15.0283C136.547 20.4069 132.832 23.8445 128.035 23.8447C125.734 23.8447 123.903 23.1242 122.655 21.627V23.5957H117.914V1.21973L122.878 0V8.29004ZM127.175 10.2861C124.707 10.2863 122.822 12.0617 122.822 15.0283C122.822 17.9947 124.707 19.7694 127.175 19.7695C129.67 19.7695 131.528 17.9948 131.528 15.0283C131.528 12.0616 129.642 10.2861 127.175 10.2861Z" fill="#012A38"/>
<path fill-rule="evenodd" clip-rule="evenodd" d="M147.597 6.21094C152.338 6.21097 156.22 9.37198 156.414 14.6123L144.075 17.8564C144.879 19.1872 146.377 19.8799 148.346 19.8799C150.148 19.8798 151.451 19.3533 152.643 18.2168L155.277 21.0723C153.697 22.8744 151.312 23.8446 148.207 23.8447C142.301 23.8447 138.447 20.1299 138.447 15.0283C138.447 9.89887 142.329 6.21094 147.597 6.21094ZM147.597 9.98145C145.129 9.98145 143.327 11.5622 143.327 14.917L151.673 12.9209C151.202 11.1741 149.676 9.98148 147.597 9.98145Z" fill="#012A38"/>
<path fill-rule="evenodd" clip-rule="evenodd" d="M167.464 6.21094C172.205 6.21108 176.086 9.37207 176.28 14.6123L163.942 17.8564C164.746 19.1871 166.244 19.8798 168.212 19.8799C170.014 19.8799 171.318 19.3535 172.51 18.2168L175.144 21.0723C173.563 22.8745 171.179 23.8447 168.073 23.8447C162.168 23.8446 158.314 20.1298 158.313 15.0283C158.313 9.89887 162.196 6.21094 167.464 6.21094ZM167.464 9.98145C164.996 9.98145 163.193 11.5622 163.193 14.917L171.539 12.9209C171.068 11.1742 169.543 9.98157 167.464 9.98145Z" fill="#012A38"/>
<path d="M9.53809 6.21094C13.1147 6.21096 15.9427 7.62496 17.1904 10.3975L12.6152 11.6172C11.7559 10.7027 10.6749 10.2872 9.51074 10.2871C6.98761 10.2871 5.01855 12.0338 5.01855 15.0283C5.01868 18.0226 6.98769 19.7695 9.51074 19.7695C10.7027 19.7694 11.7559 19.3532 12.6152 18.4385L17.1904 19.5195C15.9427 22.2367 13.1148 23.8174 9.53809 23.8174C3.99284 23.8451 0.000146188 20.1853 0 15.0283C0 9.87115 3.96501 6.21094 9.53809 6.21094Z" fill="#012A38"/>
<path d="M24.7539 8.2627C26.0848 6.93187 27.9981 6.23828 30.1885 6.23828C34.2363 6.23845 37.286 8.59538 37.2861 13.8076V23.5957H32.3232V14.5566C32.3232 11.7841 31.0477 10.5089 28.8574 10.5088C26.4729 10.5088 24.7539 11.9782 24.7539 15.1113V23.5674H19.791V1.19238L24.7539 0V8.2627Z" fill="#012A38"/>
<path d="M67.7598 8.76172C68.952 7.0982 71.0038 6.23832 73.6377 6.23828V10.8135C73.2221 10.7858 72.9172 10.7578 72.5293 10.7578C69.7843 10.7578 67.9814 12.2556 67.9814 15.5273V23.5957H63.0186V6.84863L67.7598 5.71191V8.76172Z" fill="#012A38"/>
<path fill-rule="evenodd" clip-rule="evenodd" d="M201.397 6C203.833 6 205.686 6.80172 206.955 8.4043V7.21094L211.575 6.39648V20.2363C211.575 23.3164 210.774 25.6061 209.172 27.1045C207.569 28.603 205.228 29.3515 202.147 29.3516C200.524 29.3516 198.983 29.1542 197.526 28.7588C196.07 28.3634 194.863 27.7911 193.905 27.042L195.841 23.5449C196.548 24.1276 197.443 24.5859 198.525 24.9189C199.608 25.2728 200.69 25.4492 201.772 25.4492C203.458 25.4492 204.696 25.064 205.487 24.2939C206.299 23.5447 206.705 22.4004 206.705 20.8604V20.1426C205.436 21.5369 203.666 22.2344 201.397 22.2344C199.858 22.2343 198.443 21.9012 197.152 21.2354C195.883 20.5485 194.873 19.5903 194.124 18.3623C193.375 17.1345 193 15.7196 193 14.1172C193 12.5146 193.375 11.099 194.124 9.87109C194.873 8.6432 195.883 7.69626 197.152 7.03027C198.443 6.34358 199.858 6.00007 201.397 6ZM202.365 9.99609C201.075 9.99619 200.014 10.3814 199.182 11.1514C198.349 11.9006 197.933 12.8892 197.933 14.1172C197.933 15.345 198.349 16.3442 199.182 17.1143C200.014 17.8632 201.075 18.2382 202.365 18.2383C203.655 18.2383 204.707 17.8633 205.519 17.1143C206.351 16.3442 206.768 15.345 206.768 14.1172C206.768 12.8892 206.351 11.9006 205.519 11.1514C204.707 10.3813 203.656 9.99609 202.365 9.99609Z" fill="#FF3300"/>
<path d="M225.202 10.4951C224.661 10.4535 224.297 10.4326 224.109 10.4326C222.715 10.4327 221.623 10.8285 220.832 11.6191C220.041 12.3892 219.646 13.5553 219.646 15.1162V23H214.775V7.22949L219.427 6.40918V8.46582C220.009 7.65425 220.79 7.04023 221.769 6.62402C222.767 6.20789 223.912 6.00003 225.202 6V10.4951Z" fill="#FF3300"/>
<path fill-rule="evenodd" clip-rule="evenodd" d="M235.617 6C237.343 6 238.887 6.36807 240.247 7.10449C241.607 7.8205 242.674 8.8235 243.445 10.1123C244.217 11.401 244.603 12.8636 244.603 14.5C244.603 16.1364 244.217 17.599 243.445 18.8877C242.674 20.1765 241.607 21.1893 240.247 21.9258C238.887 22.6418 237.343 23 235.617 23C233.892 22.9999 232.339 22.6417 230.958 21.9258C229.598 21.1893 228.531 20.1765 227.76 18.8877C226.988 17.599 226.603 16.1365 226.603 14.5C226.603 12.8635 226.988 11.401 227.76 10.1123C228.531 8.8235 229.598 7.8205 230.958 7.10449C232.339 6.3682 233.892 6.00006 235.617 6ZM235.617 9.92773C234.399 9.92784 233.394 10.3471 232.603 11.1855C231.811 12.0038 231.415 13.1089 231.415 14.5C231.415 15.8911 231.811 17.006 232.603 17.8447C233.394 18.6629 234.399 19.0722 235.617 19.0723C236.835 19.0723 237.831 18.663 238.603 17.8447C239.394 17.006 239.79 15.8911 239.79 14.5C239.79 13.1089 239.394 12.0038 238.603 11.1855C237.831 10.3469 236.835 9.92773 235.617 9.92773Z" fill="#FF3300"/>
<path d="M281.434 6.3291H285.586V10.0752H281.434V16.9121C281.434 17.6197 281.611 18.171 281.965 18.5664C282.319 18.941 282.828 19.1289 283.494 19.1289C284.243 19.1289 284.909 18.921 285.492 18.5049L286.772 21.9385C286.294 22.2923 285.7 22.5627 284.992 22.75C284.306 22.9164 283.588 23 282.839 23C280.82 23 279.269 22.4905 278.187 21.4707C277.104 20.4509 276.563 18.9518 276.563 16.9746V2.8584L281.434 2V6.3291Z" fill="#FF3300"/>
<path d="M293.542 7.90332C294.187 7.25813 294.968 6.76855 295.884 6.43555C296.799 6.08178 297.799 5.90527 298.881 5.90527C300.962 5.9053 302.638 6.52958 303.907 7.77832C305.197 9.02703 305.843 10.8793 305.843 13.335V22.9512H300.973V14.085C300.973 12.7532 300.681 11.7643 300.099 11.1191C299.516 10.4531 298.672 10.1201 297.569 10.1201C296.342 10.1202 295.363 10.5045 294.635 11.2744C293.906 12.0237 293.542 13.148 293.542 14.6465V22.9512H288.672V0.858398L293.542 0V7.90332Z" fill="#FF3300"/>
<path d="M251.872 14.7471C251.872 16.1415 252.112 17.1719 252.591 17.8379C253.069 18.483 253.818 18.8056 254.838 18.8057C255.879 18.8057 256.649 18.4726 257.148 17.8066C257.648 17.1406 257.897 16.1206 257.897 14.7471V6.86133L262.768 6.00293V14.7471C262.768 16.1207 263.018 17.1406 263.518 17.8066C264.017 18.4725 264.787 18.8056 265.827 18.8057C266.847 18.8057 267.597 18.4831 268.075 17.8379C268.554 17.1719 268.793 16.1414 268.793 14.7471V6.86328L273.663 6.00488V15.1221C273.663 17.5987 272.987 19.5134 271.634 20.8662C270.281 22.219 268.356 22.8955 265.858 22.8955C264.651 22.8955 263.579 22.7086 262.643 22.334C261.727 21.9593 260.957 21.3549 260.333 20.5225C259.709 21.355 258.938 21.9594 258.022 22.334C257.107 22.7085 256.024 22.8955 254.775 22.8955C252.257 22.8954 250.332 22.219 249 20.8662C247.668 19.5134 247.002 17.5986 247.002 15.1221V6.8584L251.872 6V14.7471Z" fill="#FF3300"/>
</svg>
