<svg width="288" height="30" viewBox="0 0 288 30" fill="none" xmlns="http://www.w3.org/2000/svg">
<path fill-rule="evenodd" clip-rule="evenodd" d="M209.818 5.98828C211.421 5.9883 212.877 6.33186 214.188 7.01855C215.5 7.68455 216.54 8.66278 217.311 9.95312C218.101 11.2226 218.497 12.7314 218.497 14.4795L206.072 16.8838C206.426 17.7162 206.977 18.3406 207.727 18.7568C208.497 19.1731 209.433 19.3808 210.536 19.3809C211.41 19.3809 212.181 19.2566 212.847 19.0068C213.533 18.7363 214.168 18.3197 214.751 17.7578L217.342 20.5674C215.76 22.3781 213.45 23.2832 210.411 23.2832C208.517 23.2832 206.842 22.9198 205.385 22.1914C203.928 21.4422 202.805 20.4116 202.014 19.1006C201.223 17.7894 200.827 16.3008 200.827 14.6357C200.827 12.9917 201.212 11.5142 201.982 10.2031C202.773 8.87111 203.845 7.84075 205.198 7.1123C206.572 6.36315 208.112 5.98828 209.818 5.98828ZM209.818 9.67188C208.59 9.67188 207.591 10.0676 206.821 10.8584C206.051 11.6493 205.645 12.7423 205.604 14.1367L213.783 12.5439C213.554 11.6699 213.085 10.9724 212.378 10.4521C211.67 9.93204 210.817 9.6719 209.818 9.67188Z" fill="#FF3300"/>
<path fill-rule="evenodd" clip-rule="evenodd" d="M247.067 5.98828C248.67 5.98832 250.126 6.33185 251.438 7.01855C252.749 7.68455 253.79 8.66276 254.56 9.95312C255.35 11.2226 255.746 12.7314 255.746 14.4795L243.321 16.8838C243.675 17.7162 244.226 18.3406 244.976 18.7568C245.746 19.1731 246.682 19.3809 247.785 19.3809C248.659 19.3809 249.43 19.2566 250.096 19.0068C250.782 18.7363 251.417 18.3197 252 17.7578L254.591 20.5674C253.009 22.3781 250.699 23.2832 247.66 23.2832C245.766 23.2832 244.091 22.9198 242.634 22.1914C241.177 21.4422 240.054 20.4116 239.263 19.1006C238.472 17.7894 238.076 16.3008 238.076 14.6357C238.076 12.9917 238.461 11.5142 239.231 10.2031C240.022 8.87124 241.094 7.84074 242.446 7.1123C243.82 6.36305 245.361 5.98828 247.067 5.98828ZM247.067 9.67188C245.84 9.67188 244.84 10.0676 244.07 10.8584C243.3 11.6493 242.894 12.7423 242.853 14.1367L251.032 12.5439C250.803 11.6699 250.335 10.9724 249.627 10.4521C248.919 9.93202 248.066 9.67192 247.067 9.67188Z" fill="#FF3300"/>
<path fill-rule="evenodd" clip-rule="evenodd" d="M266.044 5.98828C268.188 5.98829 269.863 6.66476 271.07 8.01758V7.24121L275.94 6.38281V23.0342H271.289V21.0986C270.082 22.5555 268.333 23.2832 266.044 23.2832C264.462 23.2832 263.026 22.9303 261.735 22.2227C260.466 21.5151 259.467 20.5054 258.738 19.1943C258.01 17.8831 257.646 16.3632 257.646 14.6357C257.647 12.9085 258.01 11.3892 258.738 10.0781C259.467 8.76703 260.466 7.75743 261.735 7.0498C263.026 6.34217 264.462 5.98828 266.044 5.98828ZM266.887 9.98438C265.638 9.9844 264.608 10.4114 263.796 11.2646C262.984 12.0971 262.578 13.2207 262.578 14.6357C262.578 16.051 262.984 17.1857 263.796 18.0391C264.608 18.8715 265.638 19.2871 266.887 19.2871C268.115 19.2871 269.135 18.8715 269.946 18.0391C270.758 17.1857 271.164 16.051 271.164 14.6357C271.164 13.2207 270.758 12.0971 269.946 11.2646C269.135 10.4113 268.115 9.98438 266.887 9.98438Z" fill="#FF3300"/>
<path d="M199.427 10.4951C198.886 10.4535 198.522 10.4327 198.335 10.4326C196.941 10.4326 195.848 10.8284 195.057 11.6191C194.266 12.3892 193.87 13.5553 193.87 15.1162V23H189V7.22949L193.651 6.40918V8.46582C194.234 7.65422 195.015 7.04024 195.993 6.62402C196.992 6.20787 198.137 6.00004 199.427 6V10.4951Z" fill="#FF3300"/>
<path d="M228.37 17.6299L233.117 6.34863L237.477 7.11719L230.774 23H225.748L219.097 7.16699L223.775 6.3418L228.37 17.6299Z" fill="#FF3300"/>
<path d="M284.011 16.9121C284.011 17.6197 284.187 18.1719 284.541 18.5674C284.916 18.942 285.437 19.1289 286.103 19.1289C286.352 19.1289 286.602 19.0976 286.852 19.0352C287.122 18.9727 287.33 18.8996 287.476 18.8164L287.694 22.5938C286.883 22.8643 286.04 23 285.166 23C283.272 23 281.794 22.5009 280.732 21.502C279.671 20.4821 279.141 19.0457 279.141 17.1934V0.858398L284.011 0V16.9121Z" fill="#FF3300"/>
<path fill-rule="evenodd" clip-rule="evenodd" d="M93.9473 20.7119C93.9471 27.0609 90.5094 29.9999 84.3545 30C81.1107 30 77.9772 29.1961 75.9531 27.6436L77.9219 24.0938C79.3914 25.2582 81.7755 26.0352 83.9658 26.0352C87.4592 26.0352 88.9842 24.4547 88.9844 21.3496V20.6279C87.6813 22.0696 85.7961 22.7636 83.5781 22.7637C78.8369 22.7637 75.0382 19.4916 75.0381 14.501C75.0381 9.51016 78.8646 6.23828 83.5781 6.23828C85.9624 6.23838 87.9313 7.04196 89.2344 8.67773V6.84766L93.9473 5.68359V20.7119ZM84.5762 10.3135C81.9699 10.3135 80.0566 12.0056 80.0566 14.501C80.0568 17.024 81.97 18.6875 84.5762 18.6875C87.1822 18.6874 89.0672 16.9961 89.0674 14.501C89.0674 11.978 87.1823 10.3136 84.5762 10.3135Z" fill="#012A38"/>
<path fill-rule="evenodd" clip-rule="evenodd" d="M58.8184 23.5947H54.0771V21.627C52.8295 23.124 51.0267 23.8447 48.7256 23.8447C43.9013 23.8445 40.1865 20.4062 40.1865 15.0273C40.1866 9.6486 43.9014 6.21015 48.7256 6.20996C50.8328 6.20996 52.6078 6.87598 53.8555 8.29004V6.90332L58.8184 5.68359V23.5947ZM49.6133 10.2861C47.1456 10.2861 45.2325 12.0607 45.2324 15.0273C45.2324 17.9941 47.1456 19.7686 49.6133 19.7686C52.0532 19.7685 53.9668 17.9941 53.9668 15.0273C53.9667 12.0607 52.0532 10.2861 49.6133 10.2861Z" fill="#012A38"/>
<path fill-rule="evenodd" clip-rule="evenodd" d="M106.098 6.21094C110.839 6.21108 114.72 9.37207 114.914 14.6123L102.576 17.8564C103.38 19.1871 104.877 19.8798 106.846 19.8799C108.648 19.8799 109.951 19.3535 111.144 18.2168L113.777 21.0723C112.197 22.8745 109.812 23.8447 106.707 23.8447C100.802 23.8446 96.9474 20.1298 96.9473 15.0283C96.9473 9.89887 100.83 6.21094 106.098 6.21094ZM106.098 9.98145C103.63 9.98145 101.827 11.5622 101.827 14.917L110.173 12.9209C109.702 11.1742 108.177 9.98157 106.098 9.98145Z" fill="#012A38"/>
<path fill-rule="evenodd" clip-rule="evenodd" d="M122.878 8.29004C124.153 6.90393 125.9 6.21094 128.035 6.21094C132.832 6.23889 136.547 9.67724 136.547 15.0283C136.547 20.4069 132.832 23.8445 128.035 23.8447C125.734 23.8447 123.903 23.1242 122.655 21.627V23.5957H117.914V1.21973L122.878 0V8.29004ZM127.175 10.2861C124.707 10.2863 122.822 12.0617 122.822 15.0283C122.822 17.9947 124.707 19.7694 127.175 19.7695C129.67 19.7695 131.528 17.9948 131.528 15.0283C131.528 12.0616 129.642 10.2861 127.175 10.2861Z" fill="#012A38"/>
<path fill-rule="evenodd" clip-rule="evenodd" d="M147.597 6.21094C152.338 6.21097 156.22 9.37198 156.414 14.6123L144.075 17.8564C144.879 19.1872 146.377 19.8799 148.346 19.8799C150.148 19.8798 151.451 19.3533 152.643 18.2168L155.277 21.0723C153.697 22.8744 151.312 23.8446 148.207 23.8447C142.301 23.8447 138.447 20.1299 138.447 15.0283C138.447 9.89887 142.329 6.21094 147.597 6.21094ZM147.597 9.98145C145.129 9.98145 143.327 11.5622 143.327 14.917L151.673 12.9209C151.202 11.1741 149.676 9.98148 147.597 9.98145Z" fill="#012A38"/>
<path fill-rule="evenodd" clip-rule="evenodd" d="M167.464 6.21094C172.205 6.21108 176.086 9.37207 176.28 14.6123L163.942 17.8564C164.746 19.1871 166.244 19.8798 168.212 19.8799C170.014 19.8799 171.318 19.3535 172.51 18.2168L175.144 21.0723C173.563 22.8745 171.179 23.8447 168.073 23.8447C162.168 23.8446 158.314 20.1298 158.313 15.0283C158.313 9.89887 162.196 6.21094 167.464 6.21094ZM167.464 9.98145C164.996 9.98145 163.193 11.5622 163.193 14.917L171.539 12.9209C171.068 11.1742 169.543 9.98157 167.464 9.98145Z" fill="#012A38"/>
<path d="M9.53809 6.21094C13.1147 6.21096 15.9427 7.62496 17.1904 10.3975L12.6152 11.6172C11.7559 10.7027 10.6749 10.2872 9.51074 10.2871C6.98761 10.2871 5.01855 12.0338 5.01855 15.0283C5.01868 18.0226 6.98769 19.7695 9.51074 19.7695C10.7027 19.7694 11.7559 19.3532 12.6152 18.4385L17.1904 19.5195C15.9427 22.2367 13.1148 23.8174 9.53809 23.8174C3.99284 23.8451 0.000146188 20.1853 0 15.0283C0 9.87115 3.96501 6.21094 9.53809 6.21094Z" fill="#012A38"/>
<path d="M24.7539 8.2627C26.0848 6.93187 27.9981 6.23828 30.1885 6.23828C34.2363 6.23845 37.286 8.59538 37.2861 13.8076V23.5957H32.3232V14.5566C32.3232 11.7841 31.0477 10.5089 28.8574 10.5088C26.4729 10.5088 24.7539 11.9782 24.7539 15.1113V23.5674H19.791V1.19238L24.7539 0V8.2627Z" fill="#012A38"/>
<path d="M67.7598 8.76172C68.952 7.0982 71.0038 6.23832 73.6377 6.23828V10.8135C73.2221 10.7858 72.9172 10.7578 72.5293 10.7578C69.7843 10.7578 67.9814 12.2556 67.9814 15.5273V23.5957H63.0186V6.84863L67.7598 5.71191V8.76172Z" fill="#012A38"/>
</svg>
