<svg width="48" height="48" viewBox="0 0 48 48" fill="none" xmlns="http://www.w3.org/2000/svg">
<rect width="48" height="48" rx="12" fill="#FF3300"/>
<path d="M36.8316 28.3905V38H27.2477L18.3372 23.9872L36.8316 28.3905Z" fill="white"/>
<path d="M21.057 37.8451C17.6122 37.3788 14.5817 35.6173 12.4319 33.079L18.3372 23.9872L21.057 37.8451Z" fill="white"/>
<path d="M18.3372 23.9872L9.58268 27.1473C9.29776 26.0853 9.16797 24.9711 9.16797 23.8314C9.168 22.7956 9.29717 21.7857 9.5043 20.8017L18.3372 23.9872Z" fill="white"/>
<path d="M36.8316 19.584L18.3372 23.9872L27.2477 10H36.8316V19.584Z" fill="white"/>
<path d="M18.3372 23.9872L12.4319 14.8954C14.5818 12.3571 17.6121 10.6216 21.057 10.1294L18.3372 23.9872Z" fill="white"/>
</svg>
