<svg width="24" height="24" viewBox="0 0 24 24" fill="none" xmlns="http://www.w3.org/2000/svg">
<rect width="24" height="24" rx="6" fill="#FF3300"/>
<path d="M18.2156 14.1952V19H13.4236L8.96842 11.9936L18.2156 14.1952Z" fill="white"/>
<path d="M10.3283 18.9225C8.6059 18.6894 7.09068 17.8086 6.01576 16.5395L8.96842 11.9936L10.3283 18.9225Z" fill="white"/>
<path d="M8.96842 11.9936L4.59115 13.5736C4.44869 13.0426 4.38379 12.4855 4.38379 11.9157C4.3838 11.3978 4.44839 10.8928 4.55195 10.4008L8.96842 11.9936Z" fill="white"/>
<path d="M18.2156 9.79199L8.96842 11.9936L13.4236 5H18.2156V9.79199Z" fill="white"/>
<path d="M8.96842 11.9936L6.01576 7.44772C7.09068 6.17855 8.60586 5.31078 10.3283 5.06471L8.96842 11.9936Z" fill="white"/>
</svg>
